<svg width="14" height="13" viewBox="0 0 14 13" fill="none" xmlns="http://www.w3.org/2000/svg">
<path d="M3.5 3.52501L2.2575 2.28834L3.08 1.46584L4.31667 2.70834L3.5 3.52501ZM7.58333 0.0833435V1.83334H6.41667V0.0833435H7.58333ZM11.7425 2.28834L10.5 3.52501L9.68333 2.70834L10.92 1.46584L11.7425 2.28834ZM2.625 5.62501V6.79168H0.875V5.62501H2.625ZM11.375 5.62501H13.125V6.79168H11.375V5.62501ZM3.5 11.1667H10.5C10.8094 11.1667 11.1062 11.2896 11.325 11.5084C11.5437 11.7272 11.6667 12.0239 11.6667 12.3333H2.33333C2.33333 12.0239 2.45625 11.7272 2.67504 11.5084C2.89383 11.2896 3.19058 11.1667 3.5 11.1667ZM7 2.41668C7.92826 2.41668 8.8185 2.78543 9.47487 3.4418C10.1313 4.09818 10.5 4.98842 10.5 5.91668V10.5833H3.5V5.91668C3.5 4.98842 3.86875 4.09818 4.52513 3.4418C5.1815 2.78543 6.07174 2.41668 7 2.41668Z" fill="#FF0000"/>
</svg>
